<svg xmlns="http://www.w3.org/2000/svg" width="855" height="299" viewBox="0 0 855 299" fill="none">
    <path
        d="M0 298.702C84.025 296.713 261.378 272.88 268 246.872C276.774 212.415 358.252 199.146 436.461 186.41C438.477 186.082 440.49 185.754 442.5 185.426C490.136 177.655 501.075 160.822 512.158 143.768C519.688 132.181 527.284 120.492 546.5 111.473C568.04 101.363 595.544 101.093 622.764 100.826C655.568 100.504 687.959 100.187 709 82.6532C726.428 68.1301 740.142 65.8641 754.563 63.4815C765.627 61.6533 777.107 59.7565 791 52.202L803 26.1012L829.259 0.2378C840.994 1.20748 849.712 2.48454 855 4.12947L833.5 47.6501C836.471 62.3394 821.258 65.7933 801.812 70.2082C785.265 73.9649 765.652 78.4175 751.57 91.0803C730.645 109.897 698.431 110.238 665.807 110.583C638.737 110.87 611.384 111.159 589.962 122.009C570.851 131.688 563.296 144.233 555.808 156.667C544.786 174.97 533.907 193.034 486.532 201.374C484.533 201.726 482.53 202.077 480.526 202.43C402.746 216.098 321.715 230.338 312.989 267.316C306.908 293.086 93.0606 298.912 0 298.702Z"
        fill="#D9D9D9" fill-opacity="0.85" />
</svg>