<svg width="156" height="156" viewBox="0 0 156 156" fill="none" xmlns="http://www.w3.org/2000/svg">

    <path
        d="M143 76C143 77.9646 142.302 80.3276 141.091 82.79C139.884 85.2451 138.186 87.7635 136.228 90.0298C134.27 92.2967 132.064 94.2983 129.849 95.7294C127.626 97.1652 125.436 98 123.5 98C119.719 98 117.326 94.7678 115.87 90.2046C114.428 85.6861 114 80.1199 114 76C114 67.9919 120.492 61.5 128.5 61.5C136.508 61.5 143 67.9919 143 76Z"
        fill="#D9D9D9" />
    <path
        d="M143 76C143 77.9646 142.302 80.3276 141.091 82.79C139.884 85.2451 138.186 87.7635 136.228 90.0298C134.27 92.2967 132.064 94.2983 129.849 95.7294C127.626 97.1652 125.436 98 123.5 98C119.719 98 117.326 94.7678 115.87 90.2046C114.428 85.6861 114 80.1199 114 76C114 67.9919 120.492 61.5 128.5 61.5C136.508 61.5 143 67.9919 143 76Z"
        fill="url(#paint0_radial_198_2194)" fill-opacity="0.2" />
    <path
        d="M143 76C143 77.9646 142.302 80.3276 141.091 82.79C139.884 85.2451 138.186 87.7635 136.228 90.0298C134.27 92.2967 132.064 94.2983 129.849 95.7294C127.626 97.1652 125.436 98 123.5 98C119.719 98 117.326 94.7678 115.87 90.2046C114.428 85.6861 114 80.1199 114 76C114 67.9919 120.492 61.5 128.5 61.5C136.508 61.5 143 67.9919 143 76Z"
        stroke="#110300" />
    <path
        d="M13 76C13 77.9646 13.6983 80.3276 14.9087 82.79C16.1156 85.2451 17.8141 87.7635 19.7718 90.0298C21.73 92.2967 23.9361 94.2983 26.1514 95.7294C28.3739 97.1652 30.5638 98 32.5 98C36.2811 98 38.6742 94.7678 40.1303 90.2046C41.5721 85.6861 42 80.1199 42 76C42 67.9919 35.5081 61.5 27.5 61.5C19.4919 61.5 13 67.9919 13 76Z"
        fill="#D9D9D9" />
    <path
        d="M13 76C13 77.9646 13.6983 80.3276 14.9087 82.79C16.1156 85.2451 17.8141 87.7635 19.7718 90.0298C21.73 92.2967 23.9361 94.2983 26.1514 95.7294C28.3739 97.1652 30.5638 98 32.5 98C36.2811 98 38.6742 94.7678 40.1303 90.2046C41.5721 85.6861 42 80.1199 42 76C42 67.9919 35.5081 61.5 27.5 61.5C19.4919 61.5 13 67.9919 13 76Z"
        fill="url(#paint1_radial_198_2194)" fill-opacity="0.2" />
    <path
        d="M13 76C13 77.9646 13.6983 80.3276 14.9087 82.79C16.1156 85.2451 17.8141 87.7635 19.7718 90.0298C21.73 92.2967 23.9361 94.2983 26.1514 95.7294C28.3739 97.1652 30.5638 98 32.5 98C36.2811 98 38.6742 94.7678 40.1303 90.2046C41.5721 85.6861 42 80.1199 42 76C42 67.9919 35.5081 61.5 27.5 61.5C19.4919 61.5 13 67.9919 13 76Z"
        stroke="#110300" />
    <path
        d="M128 82.5C128 107.309 105.884 127.5 78.5 127.5C51.1165 127.5 29 107.309 29 82.5C29 57.6905 51.1165 37.5 78.5 37.5C105.884 37.5 128 57.6905 128 82.5Z"
        fill="#D9D9D9" />
    <path
        d="M128 82.5C128 107.309 105.884 127.5 78.5 127.5C51.1165 127.5 29 107.309 29 82.5C29 57.6905 51.1165 37.5 78.5 37.5C105.884 37.5 128 57.6905 128 82.5Z"
        fill="url(#paint2_radial_198_2194)" fill-opacity="0.2" />
    <path
        d="M128 82.5C128 107.309 105.884 127.5 78.5 127.5C51.1165 127.5 29 107.309 29 82.5C29 57.6905 51.1165 37.5 78.5 37.5C105.884 37.5 128 57.6905 128 82.5Z"
        stroke="#110300" />
    <path
        d="M106.105 75.6407H85.1266V54.662C85.1266 52.0877 83.0389 50 80.4646 50H75.8027C73.2284 50 71.1407 52.0877 71.1407 54.662V75.6407H50.162C47.5877 75.6407 45.5 77.7284 45.5 80.3027V84.9646C45.5 87.5389 47.5877 89.6266 50.162 89.6266H71.1407V110.605C71.1407 113.18 73.2284 115.267 75.8027 115.267H80.4646C83.0389 115.267 85.1266 113.18 85.1266 110.605V89.6266H106.105C108.68 89.6266 110.767 87.5389 110.767 84.9646V80.3027C110.767 77.7284 108.68 75.6407 106.105 75.6407Z"
        fill="#110300" />
    <defs>
        <radialGradient id="paint0_radial_198_2194" cx="0" cy="0" r="1"
            gradientUnits="userSpaceOnUse"
            gradientTransform="translate(128.5 79.75) rotate(90) scale(18.75 15)">
            <stop offset="0.35707" stop-color="#1BC1E6" />
            <stop offset="1" stop-opacity="0" />
        </radialGradient>
        <radialGradient id="paint1_radial_198_2194" cx="0" cy="0" r="1"
            gradientUnits="userSpaceOnUse"
            gradientTransform="translate(27.5 79.75) rotate(90) scale(18.75 15)">
            <stop offset="0.35707" stop-color="#1BC1E6" />
            <stop offset="1" stop-opacity="0" />
        </radialGradient>
        <radialGradient id="paint2_radial_198_2194" cx="0" cy="0" r="1"
            gradientUnits="userSpaceOnUse"
            gradientTransform="translate(78.5 119.355) rotate(-90) scale(25.48 60.1886)">
            <stop stop-color="#1BC1E6" />
            <stop offset="1" stop-color="#372626" stop-opacity="0" />
        </radialGradient>
    </defs>
</svg>