<svg xmlns="http://www.w3.org/2000/svg" width="132" height="128" viewBox="0 0 132 128" fill="none">
    <path
        d="M131.5 75.9023C131.5 84.1866 119.784 98.4023 111.5 98.4023C103.216 98.4023 101.5 84.1866 101.5 75.9023C101.5 67.6181 108.216 60.9023 116.5 60.9023C124.784 60.9023 131.5 67.6181 131.5 75.9023Z"
        fill="#D9D9D9" />
    <path
        d="M131.5 75.9023C131.5 84.1866 119.784 98.4023 111.5 98.4023C103.216 98.4023 101.5 84.1866 101.5 75.9023C101.5 67.6181 108.216 60.9023 116.5 60.9023C124.784 60.9023 131.5 67.6181 131.5 75.9023Z"
        fill="url(#paint0_radial_511_353)" fill-opacity="0.2" />
    <path fill-rule="evenodd" clip-rule="evenodd"
        d="M128.643 82.4717C129.836 80.0447 130.5 77.7604 130.5 75.9023C130.5 68.1704 124.232 61.9023 116.5 61.9023C108.768 61.9023 102.5 68.1704 102.5 75.9023C102.5 80.0001 102.927 85.5074 104.346 89.955C105.794 94.4918 108.08 97.4023 111.5 97.4023C113.301 97.4023 115.396 96.6211 117.577 95.2117C119.744 93.8117 121.916 91.8443 123.85 89.6052C125.783 87.3674 127.457 84.8843 128.643 82.4717ZM111.5 98.4023C119.784 98.4023 131.5 84.1866 131.5 75.9023C131.5 67.6181 124.784 60.9023 116.5 60.9023C108.216 60.9023 101.5 67.6181 101.5 75.9023C101.5 84.1866 103.216 98.4023 111.5 98.4023Z"
        fill="#110300" />
    <path
        d="M0.5 75.9023C0.5 84.1866 12.2157 98.4023 20.5 98.4023C28.7843 98.4023 30.5 84.1866 30.5 75.9023C30.5 67.6181 23.7843 60.9023 15.5 60.9023C7.21573 60.9023 0.5 67.6181 0.5 75.9023Z"
        fill="#D9D9D9" />
    <path
        d="M0.5 75.9023C0.5 84.1866 12.2157 98.4023 20.5 98.4023C28.7843 98.4023 30.5 84.1866 30.5 75.9023C30.5 67.6181 23.7843 60.9023 15.5 60.9023C7.21573 60.9023 0.5 67.6181 0.5 75.9023Z"
        fill="url(#paint1_radial_511_353)" fill-opacity="0.2" />
    <path fill-rule="evenodd" clip-rule="evenodd"
        d="M3.35746 82.4717C2.16442 80.0447 1.5 77.7604 1.5 75.9023C1.5 68.1704 7.76801 61.9023 15.5 61.9023C23.232 61.9023 29.5 68.1704 29.5 75.9023C29.5 80.0001 29.0731 85.5074 27.6539 89.955C26.2062 94.4918 23.9201 97.4023 20.5 97.4023C18.6986 97.4023 16.6044 96.6211 14.4227 95.2117C12.2555 93.8117 10.0843 91.8443 8.15015 89.6052C6.21709 87.3674 4.54341 84.8843 3.35746 82.4717ZM20.5 98.4023C12.2157 98.4023 0.5 84.1866 0.5 75.9023C0.5 67.6181 7.21573 60.9023 15.5 60.9023C23.7843 60.9023 30.5 67.6181 30.5 75.9023C30.5 84.1866 28.7843 98.4023 20.5 98.4023Z"
        fill="#110300" />
    <path
        d="M111.5 62.5001C111.5 82.3856 93.8904 65.6977 66 65.6977C38.1096 65.6977 20.5 82.3856 20.5 62.5001C20.5 42.6147 38.1096 6.40234 66 6.40234C93.8904 6.40234 111.5 42.6147 111.5 62.5001Z"
        fill="#575757" />
    <path fill-rule="evenodd" clip-rule="evenodd"
        d="M107.804 70.5278C109.402 69.5848 110.5 67.4044 110.5 62.5001C110.5 52.7926 106.179 38.9613 98.3834 27.5586C90.5868 16.1545 79.4772 7.40234 66 7.40234C52.5228 7.40234 41.4132 16.1545 33.6166 27.5586C25.8209 38.9613 21.5 52.7926 21.5 62.5001C21.5 67.4044 22.5984 69.5848 24.1957 70.5278C25.0285 71.0194 26.1191 71.257 27.5381 71.2506C28.9582 71.2442 30.6341 70.9944 32.5821 70.578C34.451 70.1786 36.5476 69.628 38.8519 69.0229C46.0691 67.1278 55.3235 64.6977 66 64.6977C76.6765 64.6977 85.9309 67.1278 93.148 69.0229C95.4524 69.628 97.549 70.1786 99.4179 70.578C101.366 70.9944 103.042 71.2442 104.462 71.2506C105.881 71.257 106.972 71.0194 107.804 70.5278ZM92.8037 69.9687C104.679 73.0858 111.5 74.8763 111.5 62.5001C111.5 42.6147 93.8904 6.40234 66 6.40234C38.1096 6.40234 20.5 42.6147 20.5 62.5001C20.5 74.8763 27.321 73.0859 39.1963 69.9687C46.4017 68.0774 55.4678 65.6977 66 65.6977C76.5322 65.6977 85.5983 68.0774 92.8037 69.9687Z"
        fill="#110300" />
    <path
        d="M53.9267 15.3914C52.5442 11.0035 45.3519 11.9771 67.1731 2.64971C80.6427 -1.59417 97.5632 3.73297 98.9457 8.12087C100.328 12.5088 103.317 15.3303 89.8475 19.5742C76.3778 23.8181 55.3092 19.7793 53.9267 15.3914Z"
        fill="#575757" />
    <path fill-rule="evenodd" clip-rule="evenodd"
        d="M53.3441 12.5078C53.8275 13.1015 54.5227 13.9555 54.8805 15.0909C54.9566 15.3324 55.2274 15.7162 55.8939 16.1898C56.5383 16.6478 57.4459 17.1138 58.5921 17.5614C60.8803 18.4549 63.9853 19.2233 67.4972 19.73C74.5352 20.7453 83.0056 20.6814 89.547 18.6204C92.8856 17.5685 95.1432 16.6229 96.6418 15.7478C98.145 14.8699 98.7846 14.1209 99.0468 13.5081C99.3001 12.9164 99.2747 12.2818 99.0382 11.4333C98.9189 11.0052 98.7556 10.5553 98.5668 10.047C98.5504 10.0028 98.5338 9.9582 98.517 9.9132C98.3454 9.45196 98.1578 8.94793 97.9919 8.42138C97.8942 8.11103 97.6208 7.69194 97.0683 7.1963C96.5258 6.7097 95.7733 6.20238 94.8257 5.70258C92.9316 4.70362 90.3545 3.78527 87.3756 3.12465C81.4239 1.80479 74.033 1.54917 67.5203 3.58881C62.0944 5.90883 58.5027 7.5757 56.1804 8.83726C55.0156 9.47006 54.1975 9.98629 53.6366 10.4166C53.065 10.8552 52.8285 11.1539 52.7377 11.3303C52.6744 11.4535 52.6826 11.505 52.7069 11.5792C52.7524 11.7178 52.8695 11.9105 53.1308 12.2431C53.195 12.3248 53.2668 12.413 53.3441 12.5078ZM67.1731 2.64971C50.0143 9.98418 50.7953 10.9493 52.5845 13.1603C53.0707 13.7611 53.6313 14.4539 53.9267 15.3914C55.3092 19.7793 76.3778 23.8181 89.8475 19.5742C101.78 15.8148 100.796 13.1715 99.4551 9.56683C99.2823 9.10229 99.1035 8.62179 98.9457 8.12087C97.5632 3.73297 80.6427 -1.59417 67.1731 2.64971Z"
        fill="#110300" />
    <path
        d="M52.027 20.2727C50.8493 15.4648 41.6808 13.7576 62.4715 6.07404C75.2626 2.94089 88.6714 6.10087 89.8491 10.9088C91.0268 15.7168 93.7597 19.0236 80.9686 22.1568C68.1774 25.2899 53.2047 25.0807 52.027 20.2727Z"
        fill="#575757" />
    <path
        d="M116.5 82.4023C116.5 107.531 94.1142 127.902 66.5 127.902C38.8858 127.902 16.5 107.531 16.5 82.4023C16.5 57.2734 38.8858 36.9023 66.5 36.9023C94.1142 36.9023 116.5 57.2734 116.5 82.4023Z"
        fill="#D9D9D9" />
    <path
        d="M116.5 82.4023C116.5 107.531 94.1142 127.902 66.5 127.902C38.8858 127.902 16.5 107.531 16.5 82.4023C16.5 57.2734 38.8858 36.9023 66.5 36.9023C94.1142 36.9023 116.5 57.2734 116.5 82.4023Z"
        fill="url(#paint2_radial_511_353)" fill-opacity="0.2" />
    <path fill-rule="evenodd" clip-rule="evenodd"
        d="M66.5 126.902C93.6528 126.902 115.5 106.892 115.5 82.4023C115.5 57.9123 93.6528 37.9023 66.5 37.9023C39.3472 37.9023 17.5 57.9123 17.5 82.4023C17.5 106.892 39.3472 126.902 66.5 126.902ZM66.5 127.902C94.1142 127.902 116.5 107.531 116.5 82.4023C116.5 57.2734 94.1142 36.9023 66.5 36.9023C38.8858 36.9023 16.5 57.2734 16.5 82.4023C16.5 107.531 38.8858 127.902 66.5 127.902Z"
        fill="#110300" />
    <path
        d="M99.5 77.4023C99.5 83.2013 94.799 82.9023 89 82.9023C83.201 82.9023 78.5 83.2013 78.5 77.4023C78.5 71.6034 83.201 66.9023 89 66.9023C94.799 66.9023 99.5 71.6034 99.5 77.4023Z"
        fill="#393939" />
    <path fill-rule="evenodd" clip-rule="evenodd"
        d="M97.8459 80.1488C98.2323 79.5761 98.5 78.7223 98.5 77.4023C98.5 72.1556 94.2467 67.9023 89 67.9023C83.7533 67.9023 79.5 72.1556 79.5 77.4023C79.5 78.7223 79.7677 79.5761 80.1541 80.1488C80.534 80.7118 81.0985 81.1069 81.8991 81.3808C82.7173 81.6608 83.7389 81.7987 84.9627 81.8597C85.9529 81.909 87.021 81.9064 88.1721 81.9037C88.4435 81.903 88.7194 81.9023 89 81.9023C89.2806 81.9023 89.5565 81.903 89.8279 81.9037C90.979 81.9064 92.0471 81.909 93.0373 81.8597C94.2611 81.7987 95.2827 81.6608 96.1009 81.3808C96.9015 81.1069 97.466 80.7118 97.8459 80.1488ZM89.8139 82.9037C95.2325 82.917 99.5 82.9275 99.5 77.4023C99.5 71.6034 94.799 66.9023 89 66.9023C83.201 66.9023 78.5 71.6034 78.5 77.4023C78.5 82.9275 82.7675 82.917 88.1861 82.9037C88.4547 82.903 88.7261 82.9023 89 82.9023C89.2739 82.9023 89.5453 82.903 89.8139 82.9037Z"
        fill="url(#paint3_radial_511_353)" />
    <path fill-rule="evenodd" clip-rule="evenodd"
        d="M97.8459 80.1488C98.2323 79.5761 98.5 78.7223 98.5 77.4023C98.5 72.1556 94.2467 67.9023 89 67.9023C83.7533 67.9023 79.5 72.1556 79.5 77.4023C79.5 78.7223 79.7677 79.5761 80.1541 80.1488C80.534 80.7118 81.0985 81.1069 81.8991 81.3808C82.7173 81.6608 83.7389 81.7987 84.9627 81.8597C85.9529 81.909 87.021 81.9064 88.1721 81.9037C88.4435 81.903 88.7194 81.9023 89 81.9023C89.2806 81.9023 89.5565 81.903 89.8279 81.9037C90.979 81.9064 92.0471 81.909 93.0373 81.8597C94.2611 81.7987 95.2827 81.6608 96.1009 81.3808C96.9015 81.1069 97.466 80.7118 97.8459 80.1488ZM89.8139 82.9037C95.2325 82.917 99.5 82.9275 99.5 77.4023C99.5 71.6034 94.799 66.9023 89 66.9023C83.201 66.9023 78.5 71.6034 78.5 77.4023C78.5 82.9275 82.7675 82.917 88.1861 82.9037C88.4547 82.903 88.7261 82.9023 89 82.9023C89.2739 82.9023 89.5453 82.903 89.8139 82.9037Z"
        fill="url(#paint4_linear_511_353)" fill-opacity="0.85" />
    <path
        d="M31.5 77.4023C31.5 83.2013 36.201 83.4023 42 83.4023C47.799 83.4023 52.5 83.2013 52.5 77.4023C52.5 71.6034 47.799 66.9023 42 66.9023C36.201 66.9023 31.5 71.6034 31.5 77.4023Z"
        fill="#393939" />
    <path fill-rule="evenodd" clip-rule="evenodd"
        d="M33.1686 80.2491C32.7666 79.6179 32.5 78.7195 32.5 77.4023C32.5 72.1556 36.7533 67.9023 42 67.9023C47.2467 67.9023 51.5 72.1556 51.5 77.4023C51.5 78.7195 51.2334 79.6179 50.8314 80.2491C50.4342 80.8727 49.849 81.3239 49.0469 81.651C47.3642 82.3375 44.9542 82.4023 42 82.4023C39.0458 82.4023 36.6358 82.3375 34.9531 81.651C34.151 81.3239 33.5658 80.8727 33.1686 80.2491ZM42 83.4023C36.201 83.4023 31.5 83.2013 31.5 77.4023C31.5 71.6034 36.201 66.9023 42 66.9023C47.799 66.9023 52.5 71.6034 52.5 77.4023C52.5 83.2013 47.799 83.4023 42 83.4023Z"
        fill="url(#paint5_radial_511_353)" />
    <path fill-rule="evenodd" clip-rule="evenodd"
        d="M33.1686 80.2491C32.7666 79.6179 32.5 78.7195 32.5 77.4023C32.5 72.1556 36.7533 67.9023 42 67.9023C47.2467 67.9023 51.5 72.1556 51.5 77.4023C51.5 78.7195 51.2334 79.6179 50.8314 80.2491C50.4342 80.8727 49.849 81.3239 49.0469 81.651C47.3642 82.3375 44.9542 82.4023 42 82.4023C39.0458 82.4023 36.6358 82.3375 34.9531 81.651C34.151 81.3239 33.5658 80.8727 33.1686 80.2491ZM42 83.4023C36.201 83.4023 31.5 83.2013 31.5 77.4023C31.5 71.6034 36.201 66.9023 42 66.9023C47.799 66.9023 52.5 71.6034 52.5 77.4023C52.5 83.2013 47.799 83.4023 42 83.4023Z"
        fill="url(#paint6_linear_511_353)" fill-opacity="0.85" />
    <path fill-rule="evenodd" clip-rule="evenodd"
        d="M51.5 64.9023H33.5C29.0817 64.9023 25.5 68.4841 25.5 72.9023V82.9023C25.5 87.3206 29.0817 90.9023 33.5 90.9023H51.5C55.9183 90.9023 59.5 87.3206 59.5 82.9023V72.9023C59.5 68.4841 55.9183 64.9023 51.5 64.9023ZM33.5 63.9023C28.5294 63.9023 24.5 67.9318 24.5 72.9023V82.9023C24.5 87.8729 28.5294 91.9023 33.5 91.9023H51.5C56.4706 91.9023 60.5 87.8729 60.5 82.9023V72.9023C60.5 67.9318 56.4706 63.9023 51.5 63.9023H33.5Z"
        fill="#110300" />
    <path fill-rule="evenodd" clip-rule="evenodd"
        d="M97.5 64.9023H79.5C75.0817 64.9023 71.5 68.4841 71.5 72.9023V82.9023C71.5 87.3206 75.0817 90.9023 79.5 90.9023H97.5C101.918 90.9023 105.5 87.3206 105.5 82.9023V72.9023C105.5 68.4841 101.918 64.9023 97.5 64.9023ZM79.5 63.9023C74.5294 63.9023 70.5 67.9318 70.5 72.9023V82.9023C70.5 87.8729 74.5294 91.9023 79.5 91.9023H97.5C102.471 91.9023 106.5 87.8729 106.5 82.9023V72.9023C106.5 67.9318 102.471 63.9023 97.5 63.9023H79.5Z"
        fill="#110300" />
    <path fill-rule="evenodd" clip-rule="evenodd" d="M70.5 77.9023H60.5V76.9023H70.5V77.9023Z"
        fill="#110300" />
    <defs>
        <radialGradient id="paint0_radial_511_353" cx="0" cy="0" r="1"
            gradientUnits="userSpaceOnUse"
            gradientTransform="translate(116.5 79.6523) rotate(90) scale(18.75 15)">
            <stop offset="0.35707" stop-color="#1BC1E6" />
            <stop offset="1" stop-opacity="0" />
        </radialGradient>
        <radialGradient id="paint1_radial_511_353" cx="0" cy="0" r="1"
            gradientUnits="userSpaceOnUse"
            gradientTransform="translate(15.5 79.6523) rotate(90) scale(18.75 15)">
            <stop offset="0.35707" stop-color="#1BC1E6" />
            <stop offset="1" stop-opacity="0" />
        </radialGradient>
        <radialGradient id="paint2_radial_511_353" cx="0" cy="0" r="1"
            gradientUnits="userSpaceOnUse"
            gradientTransform="translate(66.5 119.257) rotate(-90) scale(25.48 60.1886)">
            <stop stop-color="#1BC1E6" />
            <stop offset="1" stop-color="#372626" stop-opacity="0" />
        </radialGradient>
        <radialGradient id="paint3_radial_511_353" cx="0" cy="0" r="1"
            gradientUnits="userSpaceOnUse"
            gradientTransform="translate(87.25 71.2773) rotate(83.991) scale(16.7169)">
            <stop />
            <stop offset="1" stop-opacity="0" />
        </radialGradient>
        <linearGradient id="paint4_linear_511_353" x1="99.5" y1="77.4023" x2="89" y2="87.9023"
            gradientUnits="userSpaceOnUse">
            <stop stop-color="#D9D9D9" />
            <stop offset="1" stop-color="#D9D9D9" stop-opacity="0" />
        </linearGradient>
        <radialGradient id="paint5_radial_511_353" cx="0" cy="0" r="1"
            gradientUnits="userSpaceOnUse"
            gradientTransform="translate(43.75 71.2773) rotate(96.009) scale(16.7169 16.7169)">
            <stop />
            <stop offset="1" stop-opacity="0" />
        </radialGradient>
        <linearGradient id="paint6_linear_511_353" x1="31.5" y1="77.4023" x2="42" y2="87.9023"
            gradientUnits="userSpaceOnUse">
            <stop stop-color="#D9D9D9" />
            <stop offset="1" stop-color="#D9D9D9" stop-opacity="0" />
        </linearGradient>
    </defs>
</svg>