<svg width="68" height="67" viewBox="0 0 68 67" fill="none" xmlns="http://www.w3.org/2000/svg">
    <g clip-path="url(#clip0_113_836)">
        <path
            d="M34 50.25C43.2508 50.25 50.75 42.7508 50.75 33.5C50.75 24.2492 43.2508 16.75 34 16.75C24.7492 16.75 17.25 24.2492 17.25 33.5C17.25 42.7508 24.7492 50.25 34 50.25Z"
            stroke="#110300" stroke-width="4.1875" stroke-miterlimit="10" />
        <path
            d="M8.87533 33.4998H3.29199M64.7087 33.4998H59.1253M34.0003 58.6248V64.2082M34.0003 2.7915V8.37484M16.2343 51.2659L12.2863 55.2139M55.7144 11.7858L51.7664 15.7338M16.2342 15.7338L12.2862 11.7858M55.7144 55.2139L51.7664 51.2659M50.7503 33.4998C50.7503 42.7506 43.2511 50.2498 34.0003 50.2498C24.7496 50.2498 17.2503 42.7506 17.2503 33.4998C17.2503 24.2491 24.7496 16.7498 34.0003 16.7498C43.2511 16.7498 50.7503 24.2491 50.7503 33.4998Z"
            stroke="#110300" stroke-width="5.15385" stroke-miterlimit="10" stroke-linecap="round" />
    </g>
    <defs>
        <clipPath id="clip0_113_836">
            <rect width="67" height="67" fill="white" transform="translate(0.5)" />
        </clipPath>
    </defs>
</svg>