<svg width="65" height="65" viewBox="0 0 65 65" fill="none" xmlns="http://www.w3.org/2000/svg">
<g clip-path="url(#clip0_461_237)">
<path d="M32.5 48.75C41.4746 48.75 48.75 41.4746 48.75 32.5C48.75 23.5254 41.4746 16.25 32.5 16.25C23.5254 16.25 16.25 23.5254 16.25 32.5C16.25 41.4746 23.5254 48.75 32.5 48.75Z" stroke="#110300" stroke-width="4.0625" stroke-miterlimit="10"/>
<path d="M8.12498 32.5H2.70831M62.2916 32.5H56.875M32.5 56.875V62.2917M32.5 2.70837V8.12504M15.2643 49.7358L11.4341 53.5659M53.5659 11.4342L49.7357 15.2643M15.2642 15.2643L11.434 11.4342M53.5658 53.5659L49.7357 49.7358M48.75 32.5C48.75 41.4747 41.4746 48.75 32.5 48.75C23.5254 48.75 16.25 41.4747 16.25 32.5C16.25 23.5254 23.5254 16.25 32.5 16.25C41.4746 16.25 48.75 23.5254 48.75 32.5Z" stroke="#110300" stroke-width="4.0625" stroke-miterlimit="10" stroke-linecap="round"/>
</g>
<defs>
<clipPath id="clip0_461_237">
<rect width="65" height="65" fill="white"/>
</clipPath>
</defs>
</svg>
